Coordinates
version=1
nRows=10
nColumns=40
inDegrees=yes

Units are S.I. units (second, meters, Newtons, ...)
Angles are in degrees.

endheader
time	pelvis_tilt	pelvis_list	pelvis_rotation	pelvis_tx	pelvis_ty	pelvis_tz	hip_flexion_r	hip_adduction_r	hip_rotation_r	knee_angle_r	knee_angle_r_beta	ankle_angle_r	subtalar_angle_r	mtp_angle_r	hip_flexion_l	hip_adduction_l	hip_rotation_l	knee_angle_l	knee_angle_l_beta	ankle_angle_l	subtalar_angle_l	mtp_angle_l	lumbar_extension	lumbar_bending	lumbar_rotation	arm_flex_r	arm_add_r	arm_rot_r	elbow_flex_r	pro_sup_r	wrist_flex_r	wrist_dev_r	arm_flex_l	arm_add_l	arm_rot_l	elbow_flex_l	pro_sup_l	wrist_flex_l	wrist_dev_l
     40.97500000	     -6.01872754	     -3.39421085	     -4.58259961	      0.86459397	      0.92863739	      0.44569284	     27.75534563	     -1.67588982	    -12.39621797	     15.37717240	     15.37717240	      3.44443650	      1.16317375	      6.39554071	      4.72178328	     -3.22615681	    -12.73945291	     13.15888056	     13.15888056	     15.75124490	     -2.60563833	     -4.74214545	     -9.83418507	      3.96780573	      1.18406215	    -15.81670407	    -12.96687544	    -11.00537087	     25.44581135	     46.93577277	      0.00000000	      0.00000000	     19.24961357	    -15.73154591	    -11.33271147	     66.14532520	     47.33232946	      0.00000000	      0.00000000
     40.98835714	     -5.90392457	     -3.30561256	     -4.62981033	      0.86501446	      0.92763648	      0.44739863	     27.00039414	     -1.44059511	    -13.14406706	     13.38728186	     13.38728186	      3.35332649	      2.80385036	      7.18119973	      3.93810029	     -3.19232961	    -12.91065646	     12.90761466	     12.90761466	     16.07892331	     -2.26791443	     -4.98915317	     -9.80847332	      3.89375120	      1.29275421	    -15.83997069	    -12.85696246	    -10.98089398	     25.48958061	     46.92657390	      0.00000000	      0.00000000	     19.24174030	    -15.69037846	    -11.30511261	     66.37710352	     47.33706071	      0.00000000	      0.00000000
     41.00171429	     -5.78550903	     -3.07277263	     -4.67549171	      0.86557037	      0.92650622	      0.44916995	     26.58871384	     -1.47456952	    -13.81850480	     12.48992983	     12.48992983	      3.45751840	      4.19358372	      7.84835344	      3.19520958	     -3.02752148	    -13.18664301	     12.74198982	     12.74198982	     16.42831788	     -1.77914692	     -5.31649404	     -9.76140616	      3.61492597	      1.29593829	    -15.76118296	    -12.75331752	    -10.91557941	     25.65438293	     46.90602524	      0.00000000	      0.00000000	     19.05572775	    -15.69111128	    -11.28870660	     66.58125346	     47.34462878	      0.00000000	      0.00000000
     41.01507143	     -5.83650356	     -2.91952051	     -4.68091273	      0.86606123	      0.92509015	      0.45117871	     26.61630160	     -1.42727326	    -13.89254789	     12.44348531	     12.44348531	      3.33354232	      4.20846179	      7.90731861	      2.75886270	     -2.97119414	    -13.14286058	     12.79689276	     12.79689276	     16.77266213	     -1.81037982	     -5.45592323	     -9.47411889	      3.47859979	      1.37072123	    -15.64979060	    -12.70014652	    -10.90484993	     25.70710212	     46.90345521	      0.00000000	      0.00000000	     19.00204350	    -15.67040947	    -11.28340339	     66.57433943	     47.34393735	      0.00000000	      0.00000000
     41.02842857	     -5.70822866	     -2.70579889	     -4.70296032	      0.86690961	      0.92418927	      0.45334332	     26.19616462	     -1.46838683	    -14.10445760	     12.26368944	     12.26368944	      3.02353556	      4.80482642	      7.55138867	      1.93242389	     -2.84194124	    -13.40088544	     12.52927492	     12.52927492	     17.15267215	     -1.20260072	     -5.56210476	     -9.43905436	      3.20172452	      1.22983377	    -15.14344318	    -12.50508172	    -10.74045152	     26.11682763	     46.86884183	      0.00000000	      0.00000000	     18.49910151	    -15.67298238	    -11.27874900	     66.39645154	     47.34245845	      0.00000000	      0.00000000
     41.04178571	     -5.67280403	     -2.53028015	     -4.66668744	      0.86780673	      0.92302632	      0.45558666	     26.18162517	     -1.54900091	    -13.98580488	     12.93553766	     12.93553766	      2.63349694	      4.47480470	      6.38075310	      1.34760335	     -2.79314835	    -13.53479220	     12.53494167	     12.53494167	     17.61302035	     -0.81782977	     -5.50202856	     -9.24336345	      3.01862950	      1.12862763	    -14.68590072	    -12.40046447	    -10.47673040	     26.52406708	     46.82497009	      0.00000000	      0.00000000	     18.04411942	    -15.62252153	    -11.33902142	     66.17248276	     47.34568351	      0.00000000	      0.00000000
     41.05514286	     -5.54823410	     -2.44720649	     -4.57287511	      0.86894277	      0.92198507	      0.45807184	     25.87296339	     -1.46817681	    -13.56488615	     13.35064892	     13.35064892	      0.94673479	      3.30840758	      1.59831604	      0.76155696	     -2.91285211	    -13.76190050	     12.81756088	     12.81756088	     18.53777309	     -0.10984676	     -4.53808901	     -9.13335276	      2.91737465	      0.98850863	    -14.32131960	    -12.49695153	     -9.18374069	     27.38978038	     46.65499512	      0.00000000	      0.00000000	     17.50249899	    -15.45709597	    -11.69649400	     65.86039639	     47.38270370	      0.00000000	      0.00000000
     41.06850000	     -5.44066437	     -2.36824279	     -4.45952747	      0.87007987	      0.92110641	      0.46052395	     25.91041227	     -1.54241560	    -13.30624382	     14.65306409	     14.65306409	      0.98114786	      2.59502011	      0.97755191	      0.09931117	     -2.96760981	    -13.70211258	     12.83158857	     12.83158857	     18.87572657	      0.01134530	     -4.47752713	     -9.01588586	      2.82813513	      0.90078988	    -13.68167318	    -12.44096691	     -9.03365087	     27.77632459	     46.62823298	      0.00000000	      0.00000000	     16.95729301	    -15.35404717	    -11.61857060	     65.37389721	     47.36751259	      0.00000000	      0.00000000
     41.08185714	     -5.34838820	     -2.29023869	     -4.30229276	      0.87123280	      0.92029873	      0.46304191	     26.00844235	     -1.60378522	    -12.79816055	     16.08563243	     16.08563243	      1.02415508	      1.41012733	      0.07694975	     -0.45441652	     -3.05558368	    -13.61022254	     13.00849034	     13.00849034	     19.27099330	      0.12340436	     -4.23052229	     -8.89102291	      2.78162410	      0.73378463	    -12.91951575	    -12.38037733	     -8.84191590	     28.34040428	     46.59095072	      0.00000000	      0.00000000	     16.29066930	    -15.23167973	    -11.60218331	     64.65166032	     47.35224791	      0.00000000	      0.00000000
     41.09521429	     -5.24502036	     -2.26598964	     -4.09459275	      0.87241852	      0.91964261	      0.46563407	     26.05769491	     -1.58541023	    -12.20383926	     17.48137812	     17.48137812	      1.12312928	     -0.03567164	     -0.89338790	     -0.90276703	     -3.24465868	    -13.47847843	     13.41278071	     13.41278071	     19.75162857	      0.18044362	     -3.81130388	     -8.79074709	      2.81320952	      0.54666212	    -12.12315592	    -12.37645072	     -8.61757171	     29.04221596	     46.54510066	      0.00000000	      0.00000000	     15.59464980	    -15.06371152	    -11.64501239	     63.75762821	     47.33836018	      0.00000000	      0.00000000
